<!-- Generated by IcoMoon.io -->
<svg version="1.1" xmlns="http://www.w3.org/2000/svg" width="35" height="32" viewBox="0 0 35 32">
<title>logo</title>
<path d="M15.392 11.53h-1.098v-1.113h1.098v1.113z"></path>
<path d="M14.294 11.53h-1.098v-1.113h1.098v1.113z"></path>
<path d="M8.804 11.53h-1.098v-1.113h1.098v1.113z"></path>
<path d="M7.707 11.53h-1.098v-1.113h1.098v1.113z"></path>
<path d="M6.609 11.53h-1.098v-1.113h1.098v1.113z"></path>
<path d="M28.566 10.417h-1.098v-1.113h1.098v1.113z"></path>
<path d="M27.468 10.417h-1.098v-1.113h1.098v1.113z"></path>
<path d="M19.783 10.417h-1.098v-1.113h1.098v1.113z"></path>
<path d="M18.685 10.417h-1.098v-1.113h1.098v1.113z"></path>
<path d="M16.489 10.417h-1.098v-1.113h1.098v1.113z"></path>
<path d="M15.392 10.417h-1.098v-1.113h1.098v1.113z"></path>
<path d="M7.707 10.417h-1.098v-1.113h1.098v1.113z"></path>
<path d="M6.609 10.417h-1.098v-1.113h1.098v1.113z"></path>
<path d="M28.566 9.304h-1.098v-1.113h1.098v1.113z"></path>
<path d="M18.685 9.304h-1.098v-1.113h1.098v1.113z"></path>
<path d="M16.489 9.304h-1.098v-1.113h1.098v1.113z"></path>
<path d="M6.609 9.304h-1.098v-1.113h1.098v1.113z"></path>
<path d="M34.055 8.191h-1.098v-1.113h1.098v1.113z"></path>
<path d="M1.12 8.191h-1.098v-1.113h1.098v1.113z"></path>
<path d="M34.055 7.078h-1.098v-1.113h1.098v1.113z"></path>
<path d="M32.957 7.078h-1.098v-1.113h1.098v1.113z"></path>
<path d="M23.076 7.078h-1.098v-1.113h1.098v1.113z"></path>
<path d="M21.978 7.078h-1.098v-1.113h1.098v1.113z"></path>
<path d="M20.881 7.078h-1.098v-1.113h1.098v1.113z"></path>
<path d="M14.294 7.078h-1.098v-1.113h1.098v1.113z"></path>
<path d="M13.196 7.078h-1.098v-1.113h1.098v1.113z"></path>
<path d="M12.098 7.078h-1.098v-1.113h1.098v1.113z"></path>
<path d="M2.217 7.078h-1.098v-1.113h1.098v1.113z"></path>
<path d="M1.12 7.078h-1.098v-1.113h1.098v1.113z"></path>
<path d="M34.055 5.965h-1.098v-1.113h1.098v1.113z"></path>
<path d="M32.957 5.965h-1.098v-1.113h1.098v1.113z"></path>
<path d="M31.859 5.965h-1.098v-1.113h1.098v1.113z"></path>
<path d="M24.174 5.965h-1.098v-1.113h1.098v1.113z"></path>
<path d="M23.076 5.965h-1.098v-1.113h1.098v1.113z"></path>
<path d="M21.978 5.965h-1.098v-1.113h1.098v1.113z"></path>
<path d="M18.685 5.965h-1.098v-1.113h1.098v1.113z"></path>
<path d="M16.489 5.965h-1.098v-1.113h1.098v1.113z"></path>
<path d="M13.196 5.965h-1.098v-1.113h1.098v1.113z"></path>
<path d="M12.098 5.965h-1.098v-1.113h1.098v1.113z"></path>
<path d="M11 5.965h-1.098v-1.113h1.098v1.113z"></path>
<path d="M3.315 5.965h-1.098v-1.113h1.098v1.113z"></path>
<path d="M2.217 5.965h-1.098v-1.113h1.098v1.113z"></path>
<path d="M1.12 5.965h-1.098v-1.113h1.098v1.113z"></path>
<path d="M32.957 4.852h-1.098v-1.113h1.098v1.113z"></path>
<path d="M31.859 4.852h-1.098v-1.113h1.098v1.113z"></path>
<path d="M30.761 4.852h-1.098v-1.113h1.098v1.113z"></path>
<path d="M25.272 4.852h-1.098v-1.113h1.098v1.113z"></path>
<path d="M24.174 4.852h-1.098v-1.113h1.098v1.113z"></path>
<path d="M23.076 4.852h-1.098v-1.113h1.098v1.113z"></path>
<path d="M19.783 4.852h-1.098v-1.113h1.098v1.113z"></path>
<path d="M18.685 4.852h-1.098v-1.113h1.098v1.113z"></path>
<path d="M16.489 4.852h-1.098v-1.113h1.098v1.113z"></path>
<path d="M15.392 4.852h-1.098v-1.113h1.098v1.113z"></path>
<path d="M12.098 4.852h-1.098v-1.113h1.098v1.113z"></path>
<path d="M11 4.852h-1.098v-1.113h1.098v1.113z"></path>
<path d="M9.902 4.852h-1.098v-1.113h1.098v1.113z"></path>
<path d="M4.413 4.852h-1.098v-1.113h1.098v1.113z"></path>
<path d="M3.315 4.852h-1.098v-1.113h1.098v1.113z"></path>
<path d="M2.217 4.852h-1.098v-1.113h1.098v1.113z"></path>
<path d="M31.859 3.739h-1.098v-1.113h1.098v1.113z"></path>
<path d="M30.761 3.739h-1.098v-1.113h1.098v1.113z"></path>
<path d="M29.664 3.739h-1.098v-1.113h1.098v1.113z"></path>
<path d="M20.881 3.739h-1.098v-1.113h1.098v1.113z"></path>
<path d="M19.783 3.739h-1.098v-1.113h1.098v1.113z"></path>
<path d="M18.685 3.739h-1.098v-1.113h1.098v1.113z"></path>
<path d="M16.489 3.739h-1.098v-1.113h1.098v1.113z"></path>
<path d="M15.392 3.739h-1.098v-1.113h1.098v1.113z"></path>
<path d="M14.294 3.739h-1.098v-1.113h1.098v1.113z"></path>
<path d="M5.511 3.739h-1.098v-1.113h1.098v1.113z"></path>
<path d="M4.413 3.739h-1.098v-1.113h1.098v1.113z"></path>
<path d="M3.315 3.739h-1.098v-1.113h1.098v1.113z"></path>
<path d="M35.153 2.626h-1.098v-1.113h1.098v1.113z"></path>
<path d="M30.761 2.626h-1.098v-1.113h1.098v1.113z"></path>
<path d="M29.664 2.626h-1.098v-1.113h1.098v1.113z"></path>
<path d="M28.566 2.626h-1.098v-1.113h1.098v1.113z"></path>
<path d="M20.881 2.626h-1.098v-1.113h1.098v1.113z"></path>
<path d="M19.783 2.626h-1.098v-1.113h1.098v1.113z"></path>
<path d="M15.392 2.626h-1.098v-1.113h1.098v1.113z"></path>
<path d="M14.294 2.626h-1.098v-1.113h1.098v1.113z"></path>
<path d="M6.609 2.626h-1.098v-1.113h1.098v1.113z"></path>
<path d="M5.511 2.626h-1.098v-1.113h1.098v1.113z"></path>
<path d="M4.413 2.626h-1.098v-1.113h1.098v1.113z"></path>
<path d="M35.153 1.513h-1.098v-1.113h1.098v1.113z"></path>
<path d="M34.055 1.513h-1.098v-1.113h1.098v1.113z"></path>
<path d="M29.664 1.513h-1.098v-1.113h1.098v1.113z"></path>
<path d="M28.566 1.513h-1.098v-1.113h1.098v1.113z"></path>
<path d="M27.468 1.513h-1.098v-1.113h1.098v1.113z"></path>
<path d="M20.881 1.513h-1.098v-1.113h1.098v1.113z"></path>
<path d="M14.294 1.513h-1.098v-1.113h1.098v1.113z"></path>
<path d="M7.707 1.513h-1.098v-1.113h1.098v1.113z"></path>
<path d="M6.609 1.513h-1.098v-1.113h1.098v1.113z"></path>
<path d="M5.511 1.513h-1.098v-1.113h1.098v1.113z"></path>
<path d="M1.12 1.513h-1.098v-1.113h1.098v1.113z"></path>
</svg>
